# xmcd
#
# Track frame offsets: 
#        182
#        11637
#        21640
#        33632
#        44132
#        58070
#        68582
#        82567
#        94062
#        108265
#        120632
#        133082
#
# Disc length: 1913 seconds
#
# Revision: 0
# Processed by: cddbd v1.4PL0 Copyright (c) Steve Scherf et al.
# Submitted via: ExactAudioCopy v0.95a3
#
DISCID=a007770c
DTITLE=Ray Charles - Cristal Collection
DYEAR=1900
DGENRE=
TTITLE0=Rockin' Chair Blues
TTITLE1=Goin' Down Slow
TTITLE2=St Pete Blues
TTITLE3=Hey Now
TTITLE4=This Love Of Mine
TTITLE5=They're Crazy About Me
TTITLE6=Baby Let Me Hold Your Hands
TTITLE7=If I Give You My Love
TTITLE8=Blues Is My Middle Name
TTITLE9=I Will Not Let You Go
TTITLE10=I'm Glad For Your Sake
TTITLE11=I Wonder Who's Kissing Her Now
EXTD=
EXTT0=
EXTT1=
EXTT2=
EXTT3=
EXTT4=
EXTT5=
EXTT6=
EXTT7=
EXTT8=
EXTT9=
EXTT10=
EXTT11=
PLAYORDER=
